<?xml version="1.0" encoding="UTF-8"?>
<svg width="15px" height="18px" viewBox="0 0 15 18" version="1.1" xmlns="http://www.w3.org/2000/svg" xmlns:xlink="http://www.w3.org/1999/xlink">
    <!-- Generator: Sketch 55.2 (78181) - https://sketchapp.com -->
    <title>Hold Icon Selected</title>
    <desc>Created with Sketch.</desc>
    <g id="Hold-Icon-Selected" stroke="none" stroke-width="1" fill="none" fill-rule="evenodd">
        <g id="Group-2-Copy-3" transform="translate(1.000000, 1.000000)" fill="#00FF00" fill-rule="nonzero" stroke="#FFFFFF" stroke-width="2">
            <path d="M2.13333333,16 C3.30666667,16 4.26666667,14.9714286 4.26666667,13.7142857 L4.26666667,2.28571429 C4.26666667,1.02857143 3.30666667,0 2.13333333,0 C0.96,0 0,1.02857143 0,2.28571429 L0,13.7142857 C0,14.9714286 0.96,16 2.13333333,16 Z" id="Path"></path>
            <path d="M8.53333333,2.28571429 L8.53333333,13.7142857 C8.53333333,14.9714286 9.49333333,16 10.6666667,16 C11.84,16 12.8,14.9714286 12.8,13.7142857 L12.8,2.28571429 C12.8,1.02857143 11.84,0 10.6666667,0 C9.49333333,0 8.53333333,1.02857143 8.53333333,2.28571429 Z" id="Path"></path>
        </g>
    </g>
</svg>
